<?xml version="1.0" encoding="UTF-8" standalone="no"?>
<!-- Created with Inkscape (http://www.inkscape.org/) -->

<svg
   xmlns:dc="http://purl.org/dc/elements/1.1/"
   xmlns:cc="http://creativecommons.org/ns#"
   xmlns:rdf="http://www.w3.org/1999/02/22-rdf-syntax-ns#"
   xmlns:svg="http://www.w3.org/2000/svg"
   xmlns="http://www.w3.org/2000/svg"
   xmlns:sodipodi="http://sodipodi.sourceforge.net/DTD/sodipodi-0.dtd"
   xmlns:inkscape="http://www.inkscape.org/namespaces/inkscape"
   width="210mm"
   height="297mm"
   viewBox="0 0 744.09448819 1052.3622047"
   id="svg2"
   version="1.1"
   inkscape:version="0.91 r13725"
   inkscape:export-filename="/home/joaobartolot/Desktop/mymoney_icon"
   inkscape:export-xdpi="250"
   inkscape:export-ydpi="250"
   sodipodi:docname="mymoney_icon.svg">
  <defs
     id="defs4">
    <filter
       inkscape:collect="always"
       style="color-interpolation-filters:sRGB"
       id="filter4511"
       x="-0.08210577"
       width="1.1642115"
       y="-0.26588349"
       height="1.531767">
      <feGaussianBlur
         inkscape:collect="always"
         stdDeviation="22.124079"
         id="feGaussianBlur4513" />
    </filter>
  </defs>
  <sodipodi:namedview
     id="base"
     pagecolor="#ffffff"
     bordercolor="#666666"
     borderopacity="1.0"
     inkscape:pageopacity="0.0"
     inkscape:pageshadow="2"
     inkscape:zoom="0.98994949"
     inkscape:cx="382.6086"
     inkscape:cy="517.00418"
     inkscape:document-units="px"
     inkscape:current-layer="layer1"
     showgrid="false"
     inkscape:snap-bbox="false"
     inkscape:bbox-nodes="true"
     inkscape:snap-nodes="false"
     inkscape:snap-bbox-midpoints="true"
     inkscape:object-nodes="true"
     inkscape:snap-intersection-paths="true"
     inkscape:snap-bbox-edge-midpoints="true"
     inkscape:window-width="1280"
     inkscape:window-height="743"
     inkscape:window-x="0"
     inkscape:window-y="0"
     inkscape:window-maximized="1" />
  <metadata
     id="metadata7">
    <rdf:RDF>
      <cc:Work
         rdf:about="">
        <dc:format>image/svg+xml</dc:format>
        <dc:type
           rdf:resource="http://purl.org/dc/dcmitype/StillImage" />
        <dc:title></dc:title>
      </cc:Work>
    </rdf:RDF>
  </metadata>
  <g
     inkscape:label="Layer 1"
     inkscape:groupmode="layer"
     id="layer1">
    <g
       id="g4665"
       transform="translate(9.272473,22.821321)">
      <g
         transform="matrix(0.96240123,-0.03631931,0.23392981,0.57873976,-112.01062,201.93854)"
         id="g3405">
        <rect
           style="fill:#008000;fill-rule:evenodd;stroke:none;stroke-width:1px;stroke-linecap:butt;stroke-linejoin:miter;stroke-opacity:1"
           id="rect3336-3"
           width="616.19305"
           height="317.37033"
           x="72.730995"
           y="431.02719" />
        <path
           style="fill:#00ff00;fill-rule:evenodd;stroke:none;stroke-width:1px;stroke-linecap:butt;stroke-linejoin:miter;stroke-opacity:1"
           d="m 170.71424,446.27095 a 75.761444,75.761444 0 0 1 -75.759764,75.75977 l 0,135.36133 a 75.761444,75.761444 0 0 1 75.759764,75.76172 l 420.22461,0 a 75.761444,75.761444 0 0 1 75.76172,-75.76172 l 0,-135.36133 a 75.761444,75.761444 0 0 1 -75.76172,-75.75977 l -420.22461,0 z"
           id="rect3336"
           inkscape:connector-curvature="0" />
        <g
           id="g3395"
           transform="translate(-6.0523955e-4,-5.3930894e-4)">
          <rect
             transform="matrix(0.70710678,0.70710678,-0.70710678,0.70710678,0,0)"
             y="231.24562"
             x="399.87756"
             height="34.345188"
             width="34.345188"
             id="rect3383"
             style="fill:#00ff00;stroke:none" />
          <rect
             style="fill:#00ff00;stroke:none"
             id="rect3385"
             width="34.345188"
             height="34.345188"
             x="769.81793"
             y="-138.69473"
             transform="matrix(0.70710678,0.70710678,-0.70710678,0.70710678,0,0)" />
          <rect
             transform="matrix(0.70710678,0.70710678,-0.70710678,0.70710678,0,0)"
             y="29.816864"
             x="938.32953"
             height="34.345188"
             width="34.345188"
             id="rect3387"
             style="fill:#00ff00;stroke:none" />
          <rect
             style="fill:#00ff00;stroke:none"
             id="rect3389"
             width="34.345188"
             height="34.345188"
             x="568.38916"
             y="399.7572"
             transform="matrix(0.70710678,0.70710678,-0.70710678,0.70710678,0,0)" />
        </g>
        <ellipse
           style="fill:#008000;stroke:none"
           id="path3393"
           cx="380.82751"
           cy="589.71234"
           rx="89.285713"
           ry="83.571426" />
        <text
           xml:space="preserve"
           style="font-style:normal;font-variant:normal;font-weight:normal;font-stretch:normal;font-size:191.00109863px;line-height:125%;font-family:'Abyssinica SIL';-inkscape-font-specification:'Abyssinica SIL';letter-spacing:0px;word-spacing:0px;fill:#00ff00;fill-opacity:1;stroke:none;stroke-width:1px;stroke-linecap:butt;stroke-linejoin:miter;stroke-opacity:1"
           x="330.69907"
           y="650.37946"
           id="text3401"
           sodipodi:linespacing="125%"><tspan
             sodipodi:role="line"
             id="tspan3403"
             x="330.69907"
             y="650.37946">$</tspan></text>
      </g>
      <rect
         transform="matrix(0.99669582,-0.03598429,0.37377713,0.88466581,15.280803,59.708221)"
         y="442.87665"
         x="-87.345009"
         height="180.60019"
         width="540.99017"
         id="rect4515"
         style="fill:#000000;fill-rule:evenodd;stroke:none;stroke-width:1px;stroke-linecap:butt;stroke-linejoin:miter;stroke-opacity:1;filter:url(#filter4511)" />
      <g
         id="g4217"
         transform="matrix(0.96240123,-0.03631931,0.23392981,0.57873976,-154.454,166.54551)">
        <rect
           y="431.02719"
           x="72.730995"
           height="317.37033"
           width="616.19305"
           id="rect4219"
           style="fill:#008000;fill-rule:evenodd;stroke:none;stroke-width:1px;stroke-linecap:butt;stroke-linejoin:miter;stroke-opacity:1" />
        <path
           inkscape:connector-curvature="0"
           id="path4221"
           d="m 170.71424,446.27095 a 75.761444,75.761444 0 0 1 -75.759764,75.75977 l 0,135.36133 a 75.761444,75.761444 0 0 1 75.759764,75.76172 l 420.22461,0 a 75.761444,75.761444 0 0 1 75.76172,-75.76172 l 0,-135.36133 a 75.761444,75.761444 0 0 1 -75.76172,-75.75977 l -420.22461,0 z"
           style="fill:#00ff00;fill-rule:evenodd;stroke:none;stroke-width:1px;stroke-linecap:butt;stroke-linejoin:miter;stroke-opacity:1" />
        <g
           transform="translate(-6.0523955e-4,-5.3930894e-4)"
           id="g4223">
          <rect
             style="fill:#00ff00;stroke:none"
             id="rect4225"
             width="34.345188"
             height="34.345188"
             x="399.87756"
             y="231.24562"
             transform="matrix(0.70710678,0.70710678,-0.70710678,0.70710678,0,0)" />
          <rect
             transform="matrix(0.70710678,0.70710678,-0.70710678,0.70710678,0,0)"
             y="-138.69473"
             x="769.81793"
             height="34.345188"
             width="34.345188"
             id="rect4227"
             style="fill:#00ff00;stroke:none" />
          <rect
             style="fill:#00ff00;stroke:none"
             id="rect4229"
             width="34.345188"
             height="34.345188"
             x="938.32953"
             y="29.816864"
             transform="matrix(0.70710678,0.70710678,-0.70710678,0.70710678,0,0)" />
          <rect
             transform="matrix(0.70710678,0.70710678,-0.70710678,0.70710678,0,0)"
             y="399.7572"
             x="568.38916"
             height="34.345188"
             width="34.345188"
             id="rect4231"
             style="fill:#00ff00;stroke:none" />
        </g>
        <ellipse
           ry="83.571426"
           rx="89.285713"
           cy="589.71234"
           cx="380.82751"
           id="ellipse4233"
           style="fill:#008000;stroke:none" />
        <text
           sodipodi:linespacing="125%"
           id="text4235"
           y="650.37946"
           x="330.69907"
           style="font-style:normal;font-variant:normal;font-weight:normal;font-stretch:normal;font-size:191.00109863px;line-height:125%;font-family:'Abyssinica SIL';-inkscape-font-specification:'Abyssinica SIL';letter-spacing:0px;word-spacing:0px;fill:#00ff00;fill-opacity:1;stroke:none;stroke-width:1px;stroke-linecap:butt;stroke-linejoin:miter;stroke-opacity:1"
           xml:space="preserve"><tspan
             y="650.37946"
             x="330.69907"
             id="tspan4237"
             sodipodi:role="line">$</tspan></text>
      </g>
      <rect
         style="fill:#000000;fill-rule:evenodd;stroke:none;stroke-width:1px;stroke-linecap:butt;stroke-linejoin:miter;stroke-opacity:1;filter:url(#filter4511)"
         id="rect4505"
         width="540.99017"
         height="180.60019"
         x="-87.345009"
         y="442.87665"
         transform="matrix(0.96171665,-0.03629348,0.36065938,0.8922673,-12.828954,17.953533)" />
      <g
         transform="matrix(0.96240123,0,0,0.96240123,28.002269,260.02439)"
         id="g4539">
        <rect
           style="fill:#008000;fill-rule:evenodd;stroke:none;stroke-width:1px;stroke-linecap:butt;stroke-linejoin:miter;stroke-opacity:1"
           id="rect4241"
           width="616.63165"
           height="205.85179"
           x="-38.989609"
           y="122.34126"
           transform="matrix(0.99928867,-0.03771138,0.3747495,0.9271261,0,0)" />
        <path
           style="fill:#00ff00;fill-rule:evenodd;stroke:none;stroke-width:1px;stroke-linecap:butt;stroke-linejoin:miter;stroke-opacity:1"
           d="m 108.5742,120.3652 a 78.572439,44.599307 8.6526676 0 1 -57.344918,48.41716 l 32.902131,81.39951 a 78.572439,44.599307 8.6526676 0 1 94.175077,42.70025 L 598.5311,277.02359 a 78.572439,44.599307 8.6526676 0 1 57.3464,-48.4184 L 622.97537,147.20568 A 78.572439,44.599307 8.6526676 0 1 528.79881,104.50667 L 108.5742,120.3652 Z"
           id="path4243"
           inkscape:connector-curvature="0" />
        <g
           id="g4245"
           transform="matrix(1,-0.03773822,0.2430689,0.60134977,-170.6156,-141.55754)">
          <rect
             transform="matrix(0.70710678,0.70710678,-0.70710678,0.70710678,0,0)"
             y="231.24562"
             x="399.87756"
             height="34.345188"
             width="34.345188"
             id="rect4247"
             style="fill:#00ff00;stroke:none" />
          <rect
             style="fill:#00ff00;stroke:none"
             id="rect4249"
             width="34.345188"
             height="34.345188"
             x="769.81793"
             y="-138.69473"
             transform="matrix(0.70710678,0.70710678,-0.70710678,0.70710678,0,0)" />
          <rect
             transform="matrix(0.70710678,0.70710678,-0.70710678,0.70710678,0,0)"
             y="29.816864"
             x="938.32953"
             height="34.345188"
             width="34.345188"
             id="rect4251"
             style="fill:#00ff00;stroke:none" />
          <rect
             style="fill:#00ff00;stroke:none"
             id="rect4253"
             width="34.345188"
             height="34.345188"
             x="568.38916"
             y="399.7572"
             transform="matrix(0.70710678,0.70710678,-0.70710678,0.70710678,0,0)" />
        </g>
        <ellipse
           style="fill:#008000;stroke:none"
           id="ellipse4255"
           cx="269.3262"
           cy="225.26715"
           rx="89.349266"
           ry="54.205849"
           transform="matrix(0.99928867,-0.03771138,0.3747495,0.9271261,0,0)" />
        <text
           xml:space="preserve"
           style="font-style:normal;font-variant:normal;font-weight:normal;font-stretch:normal;font-size:149.24053955px;line-height:125%;font-family:'Abyssinica SIL';-inkscape-font-specification:'Abyssinica SIL';letter-spacing:0px;word-spacing:0px;fill:#00ff00;fill-opacity:1;stroke:none;stroke-width:1px;stroke-linecap:butt;stroke-linejoin:miter;stroke-opacity:1"
           x="171.12257"
           y="318.77197"
           id="text4257"
           sodipodi:linespacing="125%"
           transform="matrix(1.2798205,-0.04829815,0.31108457,0.76961979,0,0)"><tspan
             sodipodi:role="line"
             id="tspan4259"
             x="171.12257"
             y="318.77197">$</tspan></text>
      </g>
    </g>
  </g>
</svg>
