<?xml version="1.0" encoding="UTF-8" standalone="no"?>
<!-- Generator: Adobe Illustrator 18.1.1, SVG Export Plug-In . SVG Version: 6.00 Build 0)  -->

<svg
   xmlns:dc="http://purl.org/dc/elements/1.1/"
   xmlns:cc="http://creativecommons.org/ns#"
   xmlns:rdf="http://www.w3.org/1999/02/22-rdf-syntax-ns#"
   xmlns:svg="http://www.w3.org/2000/svg"
   xmlns="http://www.w3.org/2000/svg"
   xmlns:sodipodi="http://sodipodi.sourceforge.net/DTD/sodipodi-0.dtd"
   xmlns:inkscape="http://www.inkscape.org/namespaces/inkscape"
   version="1.1"
   id="Capa_1"
   x="0px"
   y="0px"
   viewBox="0 0 354.796 354.796"
   style="enable-background:new 0 0 354.796 354.796;"
   xml:space="preserve"
   inkscape:version="0.91 r13725"
   sodipodi:docname="give-money.svg"
   inkscape:export-filename="/home/joaobartolot/Downloads/money.png"
   inkscape:export-xdpi="50.830002"
   inkscape:export-ydpi="50.830002"><metadata
     id="metadata54"><rdf:RDF><cc:Work
         rdf:about=""><dc:format>image/svg+xml</dc:format><dc:type
           rdf:resource="http://purl.org/dc/dcmitype/StillImage" /></cc:Work></rdf:RDF></metadata><defs
     id="defs52" /><sodipodi:namedview
     pagecolor="#ffffff"
     bordercolor="#666666"
     borderopacity="1"
     objecttolerance="10"
     gridtolerance="10"
     guidetolerance="10"
     inkscape:pageopacity="0"
     inkscape:pageshadow="2"
     inkscape:window-width="1280"
     inkscape:window-height="743"
     id="namedview50"
     showgrid="false"
     inkscape:zoom="0.94069384"
     inkscape:cx="20.831346"
     inkscape:cy="144.95417"
     inkscape:window-x="0"
     inkscape:window-y="0"
     inkscape:window-maximized="1"
     inkscape:current-layer="g4208" /><g
     id="g6"><g
       id="g14"><g
         id="g4208"><g
           style="enable-background:new 0 0 354.79599999999999227 354.79599999999999227;fill:#f2ff00;fill-opacity:1"
           id="g8"><path
             style="fill:#f2ff00;fill-opacity:1"
             inkscape:connector-curvature="0"
             id="path10"
             d="m 265.442,109.092 c -10.602,-4.25 -13.665,-6.82 -13.665,-11.461 0,-3.714 2.813,-8.053 10.744,-8.053 7.015,0 12.395,2.766 12.443,2.79 0.566,0.302 1.201,0.463 1.83,0.463 1.535,0 2.893,-0.929 3.456,-2.367 l 1.927,-4.926 c 0.671,-1.795 -0.347,-3.359 -1.645,-3.92 -4.319,-1.88 -12.76,-3.335 -12.846,-3.35 -0.136,-0.024 -0.609,-0.125 -0.609,-0.678 l -0.027,-7.146 c 0,-2.152 -1.797,-3.904 -4.003,-3.904 l -3.457,0 c -2.204,0 -4,1.751 -4,3.905 l 0.009,7.513 c 0,0.576 -0.624,0.826 -0.852,0.879 -10.655,2.538 -17.314,10.343 -17.314,20.188 0,12.273 10.145,17.819 21.099,21.982 8.757,3.438 12.329,6.924 12.329,12.037 0,5.564 -5.059,9.45 -12.307,9.45 -6.189,0 -14.565,-3.923 -14.648,-3.963 -0.536,-0.254 -1.104,-0.382 -1.688,-0.382 -1.594,0 -2.982,0.964 -3.537,2.457 l -1.84,4.982 c -0.654,1.86 0.353,3.37 1.642,4.042 5.144,2.679 15.098,4.249 15.541,4.318 0.119,0.017 0.725,0.23 0.725,0.784 l 0,7.48 c 0,2.152 1.797,3.904 4.004,3.904 l 3.572,0 c 2.208,0 4.005,-1.751 4.005,-3.904 l 0,-7.872 c 0,-0.736 0.543,-0.801 0.655,-0.828 11.351,-2.55 18.343,-10.855 18.343,-21.283 -0.003,-10.711 -5.951,-17.632 -19.886,-23.137 z" /><path
             style="fill:#f2ff00;fill-opacity:1"
             inkscape:connector-curvature="0"
             id="path12"
             d="m 260.979,22.509 c -51.816,0 -93.818,42.005 -93.818,93.818 0,51.814 42.002,93.82 93.818,93.82 51.814,0 93.817,-42.006 93.817,-93.82 0,-51.813 -42.003,-93.818 -93.817,-93.818 z m 0,165.895 c -39.808,0 -72.076,-32.271 -72.076,-72.076 0,-39.805 32.268,-72.075 72.076,-72.075 39.806,0 72.073,32.27 72.073,72.075 0,39.805 -32.267,72.076 -72.073,72.076 z" /></g><path
           style="fill:#f6f78a;fill-opacity:1"
           inkscape:connector-curvature="0"
           id="path16"
           d="m 335.733,255.61 c -19.95,11.011 -47.389,21.192 -74.753,25.484 -24.346,3.818 -70.148,-5.39 -70.148,-16.265 0,-4.121 40.17,10.154 64.469,3.671 18.633,-4.971 15.988,-22.401 5.853,-24.7 -10.076,-2.287 -69.108,-23.913 -94.323,-24.659 -11.878,-0.351 -41.203,4.131 -55.393,6.442 -4.861,0.791 -7.909,0.704 -8.213,5.356 -1.412,21.62 -4.195,65.832 -5.712,88.926 -0.032,0.488 0.646,7.05 6.061,2.432 5.927,-5.054 14.24,-10.656 21.929,-8.912 12.063,2.737 116.424,21.856 130.819,18.51 20.593,-4.787 78.888,-39.334 90.065,-50.072 17.324,-16.647 3.857,-34.222 -10.654,-26.213 z" /><path
           style="fill:#010a3a;fill-opacity:1"
           inkscape:connector-curvature="0"
           id="path18"
           d="m 74.426,224.74 -54.672,-2.694 c -4.221,-0.208 -8.532,2.973 -9.581,7.066 l -9.941,90.255 c -1.048,4.094 1.55,7.578 5.773,7.741 l 60.59,-0.006 c 4.224,0.163 7.942,-3.151 8.266,-7.365 l 6.654,-86.958 c 0.322,-4.213 -2.868,-7.831 -7.089,-8.039 z M 42.24,315.145 c -8.349,0 -15.116,-6.768 -15.116,-15.116 0,-8.349 6.768,-15.116 15.116,-15.116 8.348,0 15.116,6.768 15.116,15.116 0,8.349 -6.767,15.116 -15.116,15.116 z" /></g></g></g><g
     id="g20" /><g
     id="g22" /><g
     id="g24" /><g
     id="g26" /><g
     id="g28" /><g
     id="g30" /><g
     id="g32" /><g
     id="g34" /><g
     id="g36" /><g
     id="g38" /><g
     id="g40" /><g
     id="g42" /><g
     id="g44" /><g
     id="g46" /><g
     id="g48" /></svg>